<?xml version="1.0" encoding="utf-8"?>
<!-- Generator: Adobe Illustrator 19.1.0, SVG Export Plug-In . SVG Version: 6.00 Build 0)  -->
<svg version="1.1" id="Layer_1" xmlns="http://www.w3.org/2000/svg" xmlns:xlink="http://www.w3.org/1999/xlink" x="0px" y="0px"
	 viewBox="0 0 1224 792" style="enable-background:new 0 0 1224 792;" xml:space="preserve">
<style type="text/css">
	.st0{fill:#FFFFFF;}
	.st1{fill:none;stroke:#FFFFFF;stroke-width:4.8607;stroke-miterlimit:10;}
	.st2{fill:#37C1D6;}
	.st3{font-family:'Lato-Heavy';}
	.st4{font-size:21.4196px;}
</style>
<path class="st0" d="M908.4,107.1c-8.2,0-14.8-7.2-14.8-16.2s6.6-16.2,14.8-16.2S923.2,82,923.2,91S916.6,107.1,908.4,107.1z
	 M908.4,78.5c-6.3,0-11.4,5.6-11.4,12.4c0,6.8,5.1,12.4,11.4,12.4s11.4-5.6,11.4-12.4S914.7,78.5,908.4,78.5z"/>
<path class="st0" d="M765.2,255.5c-8.2,0-14.8-7.2-14.8-16.2c0-9,6.6-16.2,14.8-16.2s14.8,7.2,14.8,16.2S773.4,255.5,765.2,255.5z
	 M765.2,227c-6.3,0-11.4,5.6-11.4,12.4c0,6.8,5.1,12.4,11.4,12.4s11.4-5.6,11.4-12.4C776.6,232.5,771.5,227,765.2,227z"/>
<path class="st0" d="M410.3,463.7c-8.2,0-14.8-7.2-14.8-16.2c0-9,6.6-16.2,14.8-16.2s14.8,7.2,14.8,16.2
	C425.2,456.4,418.5,463.7,410.3,463.7z M410.3,435.2c-6.3,0-11.4,5.6-11.4,12.4c0,6.8,5.1,12.4,11.4,12.4s11.4-5.6,11.4-12.4
	C421.6,440.7,416.5,435.2,410.3,435.2z"/>
<path class="st0" d="M199,525.5c-8.2,0-14.8-7.2-14.8-16.2c0-9,6.6-16.2,14.8-16.2c8.2,0,14.8,7.2,14.8,16.2
	C213.8,518.3,207.2,525.5,199,525.5z M199,496.9c-6.3,0-11.4,5.6-11.4,12.4s5.1,12.4,11.4,12.4c6.3,0,11.4-5.6,11.4-12.4
	C210.3,502.5,205.3,496.9,199,496.9z"/>
<line class="st1" x1="188.6" y1="515.7" x2="55.1" y2="657.4"/>
<line class="st1" x1="209.3" y1="500.4" x2="399.3" y2="453.9"/>
<line class="st1" x1="545.6" y1="308.4" x2="421" y2="440.6"/>
<line class="st1" x1="566.9" y1="292.1" x2="754.5" y2="246.1"/>
<line class="st1" x1="900.6" y1="100.8" x2="776.6" y2="232.5"/>
<line class="st1" x1="1106" y1="37.3" x2="922.1" y2="87.2"/>
<polygon class="st2" points="192.5,492.9 178.1,481.1 128.3,481 128.3,444 231.3,444 231.3,481 192.5,481 "/>
<text transform="matrix(0.9162 0 0 1 152.9019 471.9463)" class="st0 st3 st4">HTML</text>
<path class="st0" d="M557,316c-8.2,0-14.8-7.2-14.8-16.2c0-9,6.6-16.2,14.8-16.2s14.8,7.2,14.8,16.2S565.2,316,557,316z M557,287.3
	c-6.3,0-11.4,5.6-11.4,12.4s5.1,12.4,11.4,12.4s11.4-5.6,11.4-12.4S563.4,287.3,557,287.3z"/>
</svg>
