<?xml version="1.0" encoding="utf-8"?>
<!-- Generator: Adobe Illustrator 19.1.0, SVG Export Plug-In . SVG Version: 6.00 Build 0)  -->
<svg version="1.1" id="Layer_1" xmlns="http://www.w3.org/2000/svg" xmlns:xlink="http://www.w3.org/1999/xlink" x="0px" y="0px"
	 viewBox="0 0 1224 792" style="enable-background:new 0 0 1224 792;" xml:space="preserve">
<style type="text/css">
	.st0{fill:#FFFFFF;}
	.st1{fill:none;stroke:#FFFFFF;stroke-width:4.2674;stroke-miterlimit:10;}
	.st2{fill:#37C1D6;}
</style>
<path class="st0" d="M914.5,193.8c-8.9,1.1-16.4-6.4-15.3-15.3c0.8-6.1,5.7-11,11.7-11.7c8.9-1.1,16.4,6.4,15.3,15.3
	C925.5,188.2,920.6,193.1,914.5,193.8z M914.5,170.1c-7.1-1.2-13.2,4.9-12,12c0.7,4.3,4.2,7.8,8.5,8.5c7.1,1.2,13.2-4.9,12-12
	C922.3,174.3,918.8,170.8,914.5,170.1z"/>
<path class="st0" d="M781.4,318.7c-7.5,0-13.6-6.1-13.6-13.6s6.1-13.6,13.6-13.6c7.5,0,13.6,6.1,13.6,13.6S788.9,318.7,781.4,318.7z
	 M785.7,295.5c-8.1-3.3-15.9,3.4-14.5,11.3c0.7,4.3,4.2,7.8,8.5,8.5c7.9,1.3,14.6-6.4,11.3-14.5C790,298.4,788.1,296.5,785.7,295.5z
	"/>
<path class="st0" d="M455.9,493.6c-7.5,0-13.6-6.1-13.6-13.6s6.1-13.6,13.6-13.6s13.6,6.1,13.6,13.6S463.4,493.6,455.9,493.6z
	 M457.7,469.7c-7.1-1.2-13.2,4.9-12,12c0.7,4.3,4.2,7.8,8.5,8.5c7.1,1.2,13.2-4.9,12-12C465.4,473.9,462,470.4,457.7,469.7z"/>
<path class="st0" d="M263.9,545.4c-9.8,1.2-17.9-8-14.6-18.1c1.3-3.9,4.4-7,8.3-8.3c10-3.3,19.3,4.8,18.1,14.6
	C274.8,539.8,269.9,544.7,263.9,545.4z M266.5,522.4c-8.1-3.4-15.9,3.3-14.6,11.3c0.7,4.3,4.2,7.8,8.5,8.5c8,1.3,14.7-6.5,11.3-14.6
	C270.7,525.3,268.8,523.4,266.5,522.4z"/>
<line class="st1" x1="252.5" y1="537.3" x2="130.1" y2="656.4"/>
<line class="st1" x1="271.5" y1="524.5" x2="445.8" y2="485.4"/>
<line class="st1" x1="580" y1="363.1" x2="465.7" y2="474.2"/>
<line class="st1" x1="599.6" y1="349.4" x2="771.6" y2="310.8"/>
<line class="st1" x1="905.6" y1="188.7" x2="791.8" y2="299.3"/>
<line class="st1" x1="1094" y1="135.3" x2="925.3" y2="177.2"/>
<polygon class="st2" points="256.2,518.1 242.9,508.3 197.3,508.2 197.3,477.1 291.7,477.1 291.7,508.2 256.2,508.2 "/>
<g>
	<path class="st0" d="M232.6,500.6h-2.7v-5.6h-5.8v5.6h-2.7v-13.1h2.7v5.5h5.8v-5.5h2.7V500.6z"/>
	<path class="st0" d="M244.6,487.5v2.2h-3.8v10.9h-2.7v-10.9h-3.8v-2.2H244.6z"/>
	<path class="st0" d="M253.2,495.5c0.1,0.2,0.2,0.5,0.3,0.7c0.1-0.2,0.2-0.5,0.3-0.7c0.1-0.2,0.2-0.4,0.3-0.7l3.6-6.9
		c0.1-0.1,0.1-0.2,0.2-0.2c0.1-0.1,0.1-0.1,0.2-0.1c0.1,0,0.1,0,0.2,0s0.2,0,0.3,0h2.1v13.1h-2.4v-8c0-0.2,0-0.3,0-0.5s0-0.4,0-0.6
		l-3.7,7.1c-0.2,0.4-0.5,0.6-0.9,0.6h-0.4c-0.2,0-0.4,0-0.6-0.1c-0.2-0.1-0.3-0.2-0.4-0.4l-3.8-7.1c0,0.2,0,0.4,0,0.6
		c0,0.2,0,0.4,0,0.5v8h-2.4v-13.1h2.1c0.1,0,0.2,0,0.3,0c0.1,0,0.2,0,0.2,0c0.1,0,0.1,0.1,0.2,0.1c0.1,0.1,0.1,0.1,0.2,0.2l3.7,7
		C253,495.1,253.1,495.3,253.2,495.5z"/>
	<path class="st0" d="M266.1,498.4h5v2.2h-7.7v-13.1h2.7V498.4z"/>
</g>
<polygon class="st2" points="446.2,462.1 432.9,452.3 387.3,452.2 387.3,421.1 481.7,421.1 481.7,452.2 446.2,452.2 "/>
<g>
	<path class="st0" d="M429.9,441.3c0.2,0,0.3,0.1,0.4,0.2l1.1,1.1c-0.5,0.7-1.2,1.2-2,1.5c-0.8,0.3-1.7,0.5-2.8,0.5
		c-1,0-1.9-0.2-2.6-0.5c-0.8-0.3-1.4-0.8-2-1.4c-0.5-0.6-1-1.3-1.3-2.1c-0.3-0.8-0.4-1.7-0.4-2.7c0-0.6,0.1-1.3,0.2-1.8
		c0.1-0.6,0.3-1.1,0.6-1.6c0.3-0.5,0.6-0.9,1-1.3c0.4-0.4,0.8-0.7,1.3-1c0.5-0.3,1-0.5,1.6-0.6c0.6-0.1,1.2-0.2,1.8-0.2
		c0.5,0,0.9,0,1.4,0.1c0.4,0.1,0.8,0.2,1.2,0.4c0.4,0.1,0.7,0.3,1,0.5c0.3,0.2,0.6,0.4,0.9,0.7l-0.9,1.2c-0.1,0.1-0.1,0.1-0.2,0.2
		c-0.1,0.1-0.2,0.1-0.3,0.1c-0.1,0-0.3-0.1-0.4-0.2c-0.1-0.1-0.3-0.2-0.5-0.3s-0.5-0.2-0.8-0.3c-0.3-0.1-0.7-0.2-1.2-0.2
		c-0.5,0-1,0.1-1.5,0.3s-0.8,0.5-1.2,0.9c-0.3,0.4-0.6,0.8-0.8,1.4c-0.2,0.5-0.3,1.2-0.3,1.9c0,0.7,0.1,1.3,0.3,1.9
		c0.2,0.5,0.5,1,0.8,1.4s0.7,0.7,1.2,0.9c0.5,0.2,0.9,0.3,1.5,0.3c0.3,0,0.6,0,0.8,0c0.2,0,0.5-0.1,0.7-0.2c0.2-0.1,0.4-0.2,0.6-0.3
		c0.2-0.1,0.4-0.3,0.6-0.4c0.1-0.1,0.1-0.1,0.2-0.1C429.7,441.4,429.8,441.3,429.9,441.3z"/>
	<path class="st0" d="M439.9,434c-0.1,0.1-0.2,0.2-0.3,0.3c-0.1,0.1-0.2,0.1-0.3,0.1c-0.1,0-0.3,0-0.4-0.1c-0.2-0.1-0.3-0.2-0.5-0.3
		c-0.2-0.1-0.4-0.2-0.7-0.3c-0.3-0.1-0.6-0.1-0.9-0.1c-0.6,0-1.1,0.1-1.4,0.4c-0.3,0.3-0.5,0.6-0.5,1.1c0,0.3,0.1,0.5,0.3,0.7
		c0.2,0.2,0.4,0.4,0.7,0.5c0.3,0.1,0.6,0.3,0.9,0.4c0.4,0.1,0.7,0.2,1.1,0.4c0.4,0.1,0.7,0.3,1.1,0.5c0.4,0.2,0.7,0.4,0.9,0.7
		c0.3,0.3,0.5,0.6,0.7,1s0.3,0.8,0.3,1.4c0,0.6-0.1,1.2-0.3,1.7c-0.2,0.5-0.5,1-0.9,1.4c-0.4,0.4-0.9,0.7-1.4,0.9
		c-0.6,0.2-1.2,0.3-1.9,0.3c-0.4,0-0.8,0-1.2-0.1s-0.8-0.2-1.2-0.4c-0.4-0.1-0.7-0.3-1.1-0.5s-0.6-0.4-0.9-0.7l0.8-1.3
		c0.1-0.1,0.2-0.2,0.3-0.2c0.1-0.1,0.2-0.1,0.3-0.1c0.2,0,0.3,0.1,0.5,0.2s0.4,0.3,0.6,0.4c0.2,0.1,0.5,0.3,0.8,0.4
		c0.3,0.1,0.7,0.2,1.1,0.2c0.6,0,1.1-0.1,1.5-0.4c0.3-0.3,0.5-0.7,0.5-1.3c0-0.3-0.1-0.6-0.3-0.8s-0.4-0.4-0.7-0.5
		c-0.3-0.1-0.6-0.3-0.9-0.4c-0.4-0.1-0.7-0.2-1.1-0.3c-0.4-0.1-0.7-0.3-1.1-0.4c-0.4-0.2-0.7-0.4-0.9-0.7c-0.3-0.3-0.5-0.6-0.7-1
		c-0.2-0.4-0.3-0.9-0.3-1.5c0-0.5,0.1-1,0.3-1.4c0.2-0.5,0.5-0.9,0.8-1.2c0.4-0.4,0.8-0.6,1.4-0.9s1.2-0.3,1.9-0.3
		c0.8,0,1.5,0.1,2.2,0.4c0.7,0.2,1.2,0.6,1.7,1L439.9,434z"/>
	<path class="st0" d="M449.8,434c-0.1,0.1-0.2,0.2-0.3,0.3c-0.1,0.1-0.2,0.1-0.3,0.1c-0.1,0-0.3,0-0.4-0.1c-0.2-0.1-0.3-0.2-0.5-0.3
		c-0.2-0.1-0.4-0.2-0.7-0.3c-0.3-0.1-0.6-0.1-0.9-0.1c-0.6,0-1.1,0.1-1.4,0.4c-0.3,0.3-0.5,0.6-0.5,1.1c0,0.3,0.1,0.5,0.3,0.7
		c0.2,0.2,0.4,0.4,0.7,0.5c0.3,0.1,0.6,0.3,0.9,0.4c0.4,0.1,0.7,0.2,1.1,0.4c0.4,0.1,0.7,0.3,1.1,0.5c0.4,0.2,0.7,0.4,0.9,0.7
		c0.3,0.3,0.5,0.6,0.7,1s0.3,0.8,0.3,1.4c0,0.6-0.1,1.2-0.3,1.7c-0.2,0.5-0.5,1-0.9,1.4c-0.4,0.4-0.9,0.7-1.4,0.9
		c-0.6,0.2-1.2,0.3-1.9,0.3c-0.4,0-0.8,0-1.2-0.1s-0.8-0.2-1.2-0.4c-0.4-0.1-0.7-0.3-1.1-0.5s-0.6-0.4-0.9-0.7l0.8-1.3
		c0.1-0.1,0.2-0.2,0.3-0.2c0.1-0.1,0.2-0.1,0.3-0.1c0.2,0,0.3,0.1,0.5,0.2s0.4,0.3,0.6,0.4c0.2,0.1,0.5,0.3,0.8,0.4
		c0.3,0.1,0.7,0.2,1.1,0.2c0.6,0,1.1-0.1,1.5-0.4c0.3-0.3,0.5-0.7,0.5-1.3c0-0.3-0.1-0.6-0.3-0.8s-0.4-0.4-0.7-0.5
		c-0.3-0.1-0.6-0.3-0.9-0.4c-0.4-0.1-0.7-0.2-1.1-0.3c-0.4-0.1-0.7-0.3-1.1-0.4c-0.4-0.2-0.7-0.4-0.9-0.7c-0.3-0.3-0.5-0.6-0.7-1
		c-0.2-0.4-0.3-0.9-0.3-1.5c0-0.5,0.1-1,0.3-1.4c0.2-0.5,0.5-0.9,0.8-1.2c0.4-0.4,0.8-0.6,1.4-0.9s1.2-0.3,1.9-0.3
		c0.8,0,1.5,0.1,2.2,0.4c0.7,0.2,1.2,0.6,1.7,1L449.8,434z"/>
</g>
<polygon class="st2" points="596.2,336.1 582.9,326.3 537.3,326.2 537.3,295.1 631.7,295.1 631.7,326.2 596.2,326.2 "/>
<g>
	<path class="st0" d="M554.5,312.5c0,0.7-0.1,1.4-0.2,2c-0.1,0.6-0.3,1.1-0.5,1.5c-0.2,0.4-0.5,0.7-0.9,1c-0.3,0.2-0.8,0.3-1.2,0.3
		c-0.2,0-0.4,0-0.6-0.1c-0.2,0-0.4-0.1-0.6-0.2l0.1-1.6c0-0.1,0-0.3,0.1-0.3s0.1-0.1,0.3-0.1c0.1,0,0.1,0,0.3,0.1
		c0.1,0,0.2,0.1,0.4,0.1c0.2,0,0.4,0,0.5-0.1c0.2-0.1,0.3-0.2,0.4-0.4s0.2-0.5,0.2-0.8s0.1-0.7,0.1-1.2v-8.4h1.7V312.5z"/>
	<path class="st0" d="M563.3,317.2H562c-0.1,0-0.3-0.1-0.4-0.2c-0.1-0.1-0.2-0.3-0.2-0.4l-0.6-2.5h-3.3l-0.6,2.5
		c0,0.2-0.1,0.3-0.2,0.4c-0.1,0.1-0.2,0.2-0.4,0.2H555l3.3-13.1h1.8L563.3,317.2z M557.9,312.3h2.5l-0.9-4c-0.1-0.2-0.1-0.5-0.2-0.7
		c-0.1-0.3-0.1-0.6-0.2-0.9c-0.1,0.3-0.1,0.6-0.2,0.9c-0.1,0.3-0.1,0.5-0.2,0.7L557.9,312.3z"/>
	<path class="st0" d="M562.4,304.2h1.4c0.1,0,0.3,0.1,0.4,0.2c0.1,0.1,0.2,0.3,0.2,0.4l1.8,7.5c0.1,0.3,0.1,0.6,0.2,0.9
		c0.1,0.3,0.1,0.7,0.2,1c0-0.4,0.1-0.7,0.2-1s0.1-0.6,0.2-0.9l1.8-7.5c0-0.1,0.1-0.3,0.2-0.4s0.2-0.2,0.4-0.2h1.4l-3.4,13.1h-1.6
		L562.4,304.2z"/>
	<path class="st0" d="M578.2,317.2h-1.3c-0.1,0-0.3-0.1-0.4-0.2c-0.1-0.1-0.2-0.3-0.2-0.4l-0.6-2.5h-3.3l-0.6,2.5
		c0,0.2-0.1,0.3-0.2,0.4c-0.1,0.1-0.2,0.2-0.4,0.2h-1.4l3.3-13.1h1.8L578.2,317.2z M572.8,312.3h2.5l-0.9-4
		c-0.1-0.2-0.1-0.5-0.2-0.7c-0.1-0.3-0.1-0.6-0.2-0.9c-0.1,0.3-0.1,0.6-0.2,0.9c-0.1,0.3-0.1,0.5-0.2,0.7L572.8,312.3z"/>
	<path class="st0" d="M588.5,306.7c-0.1,0.1-0.1,0.2-0.2,0.3s-0.1,0.1-0.2,0.1c-0.1,0-0.2,0-0.3-0.1c-0.1-0.1-0.2-0.2-0.3-0.3
		s-0.3-0.2-0.5-0.3c-0.2-0.1-0.4-0.1-0.6-0.1c-0.4,0-0.7,0.1-0.9,0.4c-0.2,0.3-0.3,0.6-0.3,1.1c0,0.3,0.1,0.5,0.2,0.7
		s0.3,0.4,0.4,0.5c0.2,0.1,0.4,0.3,0.6,0.4s0.5,0.2,0.7,0.4c0.2,0.1,0.5,0.3,0.7,0.5c0.2,0.2,0.4,0.4,0.6,0.7c0.2,0.3,0.3,0.6,0.4,1
		s0.2,0.8,0.2,1.4c0,0.6-0.1,1.2-0.2,1.7s-0.3,1-0.6,1.4c-0.2,0.4-0.6,0.7-0.9,0.9c-0.4,0.2-0.8,0.3-1.2,0.3c-0.3,0-0.5,0-0.8-0.1
		c-0.3-0.1-0.5-0.2-0.8-0.4s-0.5-0.3-0.7-0.5c-0.2-0.2-0.4-0.4-0.6-0.7l0.5-1.3c0-0.1,0.1-0.2,0.2-0.2c0.1-0.1,0.1-0.1,0.2-0.1
		c0.1,0,0.2,0.1,0.3,0.2c0.1,0.1,0.2,0.3,0.4,0.4s0.3,0.3,0.5,0.4c0.2,0.1,0.4,0.2,0.7,0.2c0.4,0,0.7-0.1,0.9-0.4
		c0.2-0.3,0.3-0.7,0.3-1.3c0-0.3-0.1-0.6-0.2-0.8c-0.1-0.2-0.3-0.4-0.4-0.5s-0.4-0.3-0.6-0.4c-0.2-0.1-0.5-0.2-0.7-0.3
		s-0.5-0.3-0.7-0.4c-0.2-0.2-0.4-0.4-0.6-0.7c-0.2-0.3-0.3-0.6-0.4-1c-0.1-0.4-0.2-0.9-0.2-1.5c0-0.5,0.1-1,0.2-1.4s0.3-0.9,0.5-1.2
		s0.5-0.6,0.9-0.9c0.3-0.2,0.7-0.3,1.2-0.3c0.5,0,1,0.1,1.4,0.4c0.4,0.2,0.8,0.6,1.1,1L588.5,306.7z"/>
	<path class="st0" d="M596.1,314c0.1,0,0.2,0.1,0.2,0.2l0.7,1.1c-0.3,0.7-0.8,1.2-1.3,1.5s-1.1,0.5-1.8,0.5c-0.6,0-1.2-0.2-1.7-0.5
		s-0.9-0.8-1.3-1.4c-0.4-0.6-0.6-1.3-0.8-2.1s-0.3-1.7-0.3-2.7c0-0.6,0-1.3,0.1-1.8c0.1-0.6,0.2-1.1,0.4-1.6
		c0.2-0.5,0.4-0.9,0.6-1.3s0.5-0.7,0.8-1c0.3-0.3,0.6-0.5,1-0.6s0.8-0.2,1.2-0.2c0.3,0,0.6,0,0.9,0.1c0.3,0.1,0.5,0.2,0.8,0.4
		s0.5,0.3,0.7,0.5c0.2,0.2,0.4,0.4,0.5,0.7l-0.6,1.2c0,0.1-0.1,0.1-0.1,0.2c-0.1,0.1-0.1,0.1-0.2,0.1c-0.1,0-0.2-0.1-0.3-0.2
		s-0.2-0.2-0.3-0.3c-0.1-0.1-0.3-0.2-0.5-0.3c-0.2-0.1-0.5-0.2-0.8-0.2c-0.3,0-0.7,0.1-1,0.3c-0.3,0.2-0.5,0.5-0.8,0.9
		c-0.2,0.4-0.4,0.8-0.5,1.4s-0.2,1.2-0.2,1.9c0,0.7,0.1,1.3,0.2,1.9c0.1,0.5,0.3,1,0.5,1.4c0.2,0.4,0.5,0.7,0.8,0.9
		c0.3,0.2,0.6,0.3,0.9,0.3c0.2,0,0.4,0,0.5,0c0.2,0,0.3-0.1,0.4-0.2c0.1-0.1,0.3-0.2,0.4-0.3c0.1-0.1,0.2-0.3,0.4-0.4
		c0-0.1,0.1-0.1,0.1-0.1C596,314,596,314,596.1,314z"/>
	<path class="st0" d="M599.7,312.2v5H598v-13.1h2.6c0.6,0,1.1,0.1,1.5,0.3c0.4,0.2,0.8,0.5,1,0.8c0.3,0.3,0.5,0.7,0.6,1.2
		c0.1,0.5,0.2,1,0.2,1.5c0,0.4,0,0.8-0.1,1.2c-0.1,0.4-0.2,0.7-0.3,1.1c-0.2,0.3-0.3,0.6-0.6,0.8c-0.2,0.2-0.5,0.4-0.8,0.6
		c0.1,0.1,0.2,0.2,0.3,0.3c0.1,0.1,0.2,0.3,0.3,0.5l1.9,4.7h-1.6c-0.3,0-0.5-0.2-0.6-0.5l-1.6-4c-0.1-0.2-0.1-0.3-0.2-0.3
		c-0.1-0.1-0.2-0.1-0.3-0.1H599.7z M599.7,310.3h0.9c0.3,0,0.5-0.1,0.7-0.2s0.4-0.3,0.5-0.5s0.2-0.4,0.3-0.7s0.1-0.6,0.1-0.9
		c0-0.6-0.1-1.1-0.4-1.4c-0.3-0.3-0.7-0.5-1.2-0.5h-0.9V310.3z"/>
	<path class="st0" d="M607.2,317.2h-1.7v-13.1h1.7V317.2z"/>
	<path class="st0" d="M610.7,312.7v4.5H609v-13.1h2.8c0.6,0,1.1,0.1,1.5,0.3c0.4,0.2,0.8,0.5,1,0.9c0.3,0.4,0.5,0.8,0.6,1.3
		s0.2,1.1,0.2,1.7c0,0.6-0.1,1.2-0.2,1.8s-0.3,1-0.6,1.4c-0.3,0.4-0.6,0.7-1,0.9s-0.9,0.3-1.5,0.3H610.7z M610.7,310.7h1.1
		c0.5,0,0.9-0.2,1.2-0.6c0.3-0.4,0.4-1,0.4-1.7c0-0.3,0-0.6-0.1-0.9s-0.2-0.5-0.3-0.7s-0.3-0.3-0.5-0.4s-0.4-0.2-0.7-0.2h-1.1V310.7
		z"/>
	<path class="st0" d="M622.1,304.2v2.2h-2.4v10.9h-1.7v-10.9h-2.4v-2.2H622.1z"/>
</g>
<polygon class="st2" points="770.2,288.1 756.9,278.3 711.3,278.2 711.3,247.1 805.7,247.1 805.7,278.2 770.2,278.2 "/>
<g>
	<path class="st0" d="M731.9,265.9c0,0.7-0.1,1.4-0.3,2c-0.2,0.6-0.5,1.1-0.8,1.5c-0.4,0.4-0.8,0.7-1.4,1c-0.5,0.2-1.2,0.3-1.9,0.3
		c-0.3,0-0.7,0-1-0.1c-0.3,0-0.7-0.1-1-0.2l0.1-1.6c0-0.1,0.1-0.3,0.2-0.3s0.2-0.1,0.4-0.1c0.1,0,0.2,0,0.4,0.1s0.4,0.1,0.6,0.1
		c0.3,0,0.6,0,0.8-0.1s0.4-0.2,0.6-0.4s0.3-0.5,0.4-0.8s0.1-0.7,0.1-1.2v-8.4h2.7V265.9z"/>
	<path class="st0" d="M747.1,264c0,0.6-0.1,1.1-0.2,1.7s-0.3,1-0.5,1.5c-0.2,0.5-0.5,0.9-0.8,1.3c-0.3,0.4-0.7,0.7-1.1,1l3.3,3.6
		h-2.2c-0.3,0-0.6,0-0.9-0.1s-0.5-0.2-0.7-0.5l-1.8-2c-0.6,0.1-1.2,0.2-1.8,0.2c-1,0-1.9-0.2-2.7-0.5c-0.8-0.3-1.5-0.8-2.1-1.4
		c-0.6-0.6-1-1.3-1.4-2.1c-0.3-0.8-0.5-1.7-0.5-2.7c0-1,0.2-1.8,0.5-2.7c0.3-0.8,0.8-1.5,1.4-2.1c0.6-0.6,1.3-1.1,2.1-1.4
		c0.8-0.3,1.7-0.5,2.7-0.5s1.9,0.2,2.7,0.5s1.5,0.8,2.1,1.4s1,1.3,1.4,2.1C746.9,262.2,747.1,263.1,747.1,264z M744.3,264
		c0-0.7-0.1-1.3-0.3-1.8s-0.4-1-0.8-1.4c-0.3-0.4-0.8-0.7-1.2-0.9c-0.5-0.2-1-0.3-1.6-0.3c-0.6,0-1.2,0.1-1.6,0.3
		c-0.5,0.2-0.9,0.5-1.2,0.9c-0.3,0.4-0.6,0.8-0.8,1.4c-0.2,0.5-0.3,1.2-0.3,1.8c0,0.7,0.1,1.3,0.3,1.8c0.2,0.5,0.4,1,0.8,1.4
		c0.3,0.4,0.8,0.7,1.2,0.9c0.5,0.2,1,0.3,1.6,0.3c0.6,0,1.2-0.1,1.6-0.3c0.5-0.2,0.9-0.5,1.2-0.9c0.3-0.4,0.6-0.8,0.8-1.4
		S744.3,264.7,744.3,264z"/>
	<path class="st0" d="M754.4,268.4c0.4,0,0.8-0.1,1.2-0.2c0.3-0.1,0.6-0.4,0.9-0.6c0.2-0.3,0.4-0.6,0.5-1c0.1-0.4,0.2-0.8,0.2-1.3
		v-7.8h2.7v7.8c0,0.8-0.1,1.5-0.4,2.2c-0.3,0.7-0.6,1.2-1.1,1.7c-0.5,0.5-1.1,0.9-1.7,1.1c-0.7,0.3-1.4,0.4-2.3,0.4
		s-1.6-0.1-2.3-0.4c-0.7-0.3-1.3-0.6-1.7-1.1c-0.5-0.5-0.8-1.1-1.1-1.7c-0.3-0.7-0.4-1.4-0.4-2.2v-7.8h2.7v7.8
		c0,0.5,0.1,0.9,0.2,1.3c0.1,0.4,0.3,0.7,0.5,1c0.2,0.3,0.5,0.5,0.9,0.6C753.6,268.3,754,268.4,754.4,268.4z"/>
	<path class="st0" d="M770.8,257.5v2.1h-5.6v3.4h4.4v2h-4.4v3.4h5.6v2.1h-8.3v-13.1H770.8z"/>
	<path class="st0" d="M775.5,265.6v5h-2.7v-13.1h4.1c0.9,0,1.7,0.1,2.3,0.3c0.6,0.2,1.2,0.5,1.6,0.8s0.7,0.7,0.9,1.2
		c0.2,0.5,0.3,1,0.3,1.5c0,0.4-0.1,0.8-0.2,1.2c-0.1,0.4-0.3,0.7-0.5,1.1c-0.2,0.3-0.5,0.6-0.9,0.8c-0.3,0.2-0.7,0.4-1.2,0.6
		c0.2,0.1,0.3,0.2,0.5,0.3c0.2,0.1,0.3,0.3,0.4,0.5l3,4.7h-2.4c-0.5,0-0.8-0.2-1-0.5l-2.5-4c-0.1-0.2-0.2-0.3-0.3-0.3
		c-0.1-0.1-0.3-0.1-0.5-0.1H775.5z M775.5,263.7h1.4c0.4,0,0.8-0.1,1.1-0.2s0.6-0.3,0.8-0.5s0.4-0.4,0.5-0.7
		c0.1-0.3,0.1-0.6,0.1-0.9c0-0.6-0.2-1.1-0.6-1.4c-0.4-0.3-1-0.5-1.9-0.5h-1.4V263.7z"/>
	<path class="st0" d="M789.8,265.5v5h-2.7v-5l-4.7-8h2.4c0.2,0,0.4,0.1,0.6,0.2c0.1,0.1,0.3,0.3,0.3,0.4l2.1,4.1
		c0.1,0.3,0.3,0.5,0.4,0.8c0.1,0.2,0.2,0.5,0.3,0.7c0.2-0.5,0.4-1,0.7-1.5l2.1-4.1c0.1-0.1,0.2-0.3,0.3-0.4c0.1-0.1,0.3-0.2,0.6-0.2
		h2.4L789.8,265.5z"/>
</g>
<polygon class="st2" points="932.5,191.5 946,201 991.6,200 992.3,231.1 897.9,233.4 897.2,202.3 932.7,201.4 "/>
<g>
	<path class="st0" d="M912.6,224.1l-1.6,0c-0.2,0-0.3-0.1-0.4-0.2c-0.1-0.1-0.2-0.3-0.3-0.4l-0.7-2.5l-4,0l-0.7,2.5
		c0,0.2-0.1,0.3-0.2,0.4c-0.1,0.1-0.3,0.2-0.4,0.2l-1.6,0l3.8-13.1l2.1,0L912.6,224.1z M906.1,219.2l3,0l-1.1-4
		c-0.1-0.2-0.1-0.5-0.2-0.7s-0.1-0.6-0.2-0.9c-0.1,0.3-0.1,0.6-0.2,0.9c-0.1,0.3-0.1,0.5-0.2,0.7L906.1,219.2z"/>
	<path class="st0" d="M914.7,211c0.1,0,0.1,0,0.2,0.1s0.1,0.1,0.1,0.1c0,0.1,0.1,0.1,0.2,0.2l5.2,8.3c0-0.2,0-0.4,0-0.7s0-0.4,0-0.6
		l-0.1-7.5l1.8,0l0.1,13.1l-1.1,0c-0.2,0-0.3,0-0.4-0.1c-0.1-0.1-0.2-0.2-0.3-0.4l-5.1-8.2c0,0.2,0,0.4,0,0.6c0,0.2,0,0.4,0,0.6
		l0.1,7.6l-1.8,0l-0.1-13.1l1.1,0C914.6,211,914.7,211,914.7,211z"/>
	<path class="st0" d="M931,223.7c-0.6,0.2-1.2,0.4-1.8,0.4c-0.8,0-1.6-0.1-2.3-0.5c-0.7-0.3-1.3-0.8-1.7-1.4
		c-0.5-0.6-0.9-1.3-1.1-2.1c-0.3-0.8-0.4-1.7-0.4-2.7c0-1,0.1-1.9,0.3-2.7c0.2-0.8,0.6-1.5,1-2.1s1-1.1,1.7-1.4
		c0.6-0.3,1.4-0.5,2.2-0.5c0.4,0,0.8,0,1.2,0.1c0.4,0.1,0.7,0.2,1,0.3c0.3,0.1,0.6,0.3,0.8,0.5s0.5,0.4,0.7,0.7l-0.6,1.2
		c-0.1,0.2-0.2,0.3-0.4,0.4c-0.1,0-0.3,0-0.5-0.1c-0.2-0.1-0.3-0.2-0.5-0.3s-0.3-0.2-0.5-0.3s-0.4-0.1-0.6-0.2s-0.5-0.1-0.7-0.1
		c-0.5,0-0.9,0.1-1.3,0.3c-0.4,0.2-0.7,0.5-1,0.9c-0.3,0.4-0.5,0.9-0.6,1.4s-0.2,1.1-0.2,1.8c0,0.7,0.1,1.4,0.3,1.9
		c0.2,0.6,0.4,1,0.7,1.4c0.3,0.4,0.6,0.7,1,0.9c0.4,0.2,0.9,0.3,1.3,0.3c0.3,0,0.6-0.1,0.9-0.1c0.3-0.1,0.5-0.2,0.8-0.4l0-2.2
		l-1.1,0c-0.1,0-0.2,0-0.3-0.1c-0.1-0.1-0.1-0.2-0.1-0.4l0-1.5l3.5,0l0.1,5.4C932.2,223.1,931.6,223.4,931,223.7z"/>
	<path class="st0" d="M938.5,221.6c0.3,0,0.6-0.1,0.9-0.2c0.3-0.1,0.5-0.4,0.7-0.6c0.2-0.3,0.3-0.6,0.4-1c0.1-0.4,0.1-0.8,0.1-1.3
		l-0.1-7.8l2.1,0l0.1,7.8c0,0.8-0.1,1.5-0.3,2.2c-0.2,0.7-0.5,1.2-0.8,1.7c-0.4,0.5-0.8,0.9-1.3,1.1c-0.5,0.3-1.1,0.4-1.8,0.4
		c-0.7,0-1.3-0.1-1.8-0.4s-1-0.6-1.4-1.1c-0.4-0.5-0.7-1-0.9-1.7s-0.3-1.4-0.3-2.2l-0.1-7.8l2.1,0l0.1,7.8c0,0.5,0.1,0.9,0.2,1.3
		c0.1,0.4,0.2,0.7,0.4,1c0.2,0.3,0.4,0.5,0.7,0.6C937.9,221.5,938.2,221.6,938.5,221.6z"/>
	<path class="st0" d="M946.8,221.5l3.9,0l0,2.2l-6,0.1l-0.1-13.1l2.1,0L946.8,221.5z"/>
	<path class="st0" d="M960.9,223.5l-1.6,0c-0.2,0-0.3-0.1-0.4-0.2c-0.1-0.1-0.2-0.3-0.3-0.4l-0.7-2.5l-4,0l-0.7,2.5
		c0,0.2-0.1,0.3-0.2,0.4c-0.1,0.1-0.3,0.2-0.4,0.2l-1.6,0l3.8-13.1l2.1,0L960.9,223.5z M954.3,218.6l3,0l-1.1-4
		c-0.1-0.2-0.1-0.5-0.2-0.7c-0.1-0.3-0.1-0.6-0.2-0.9c-0.1,0.3-0.1,0.6-0.2,0.9c-0.1,0.3-0.1,0.5-0.2,0.7L954.3,218.6z"/>
	<path class="st0" d="M963.8,218.5l0.1,5l-2.1,0l-0.1-13.1l3.2,0c0.7,0,1.3,0.1,1.8,0.3c0.5,0.2,0.9,0.4,1.2,0.8
		c0.3,0.3,0.6,0.7,0.7,1.2c0.2,0.5,0.2,1,0.2,1.5c0,0.4,0,0.8-0.1,1.2c-0.1,0.4-0.2,0.7-0.4,1.1c-0.2,0.3-0.4,0.6-0.7,0.9
		c-0.3,0.2-0.6,0.5-0.9,0.6c0.1,0.1,0.3,0.2,0.4,0.3c0.1,0.1,0.2,0.3,0.3,0.5l2.4,4.7l-1.9,0c-0.4,0-0.6-0.2-0.8-0.5l-2-4
		c-0.1-0.2-0.2-0.3-0.3-0.3c-0.1-0.1-0.2-0.1-0.4-0.1L963.8,218.5z M963.8,216.6l1.1,0c0.3,0,0.6-0.1,0.9-0.2
		c0.2-0.1,0.4-0.3,0.6-0.5c0.2-0.2,0.3-0.4,0.3-0.7c0.1-0.3,0.1-0.6,0.1-0.9c0-0.6-0.2-1.1-0.5-1.4s-0.8-0.5-1.5-0.5l-1.1,0
		L963.8,216.6z"/>
	<path class="st0" d="M977.7,218.6c0,0.7-0.1,1.4-0.2,2c-0.1,0.6-0.3,1.1-0.6,1.5c-0.3,0.4-0.6,0.8-1,1c-0.4,0.2-0.9,0.4-1.5,0.4
		c-0.3,0-0.5,0-0.8-0.1c-0.2,0-0.5-0.1-0.8-0.2l0.1-1.6c0-0.1,0.1-0.3,0.1-0.3s0.2-0.1,0.3-0.1c0.1,0,0.2,0,0.3,0.1
		c0.1,0,0.3,0.1,0.5,0c0.2,0,0.5-0.1,0.7-0.1c0.2-0.1,0.3-0.2,0.5-0.4c0.1-0.2,0.2-0.5,0.3-0.8c0.1-0.3,0.1-0.7,0.1-1.2l-0.1-8.4
		l2.1,0L977.7,218.6z"/>
	<path class="st0" d="M985.1,212.7c-0.1,0.1-0.1,0.2-0.2,0.3c-0.1,0.1-0.2,0.1-0.3,0.1c-0.1,0-0.2,0-0.3-0.1
		c-0.1-0.1-0.3-0.2-0.4-0.3s-0.3-0.2-0.5-0.3c-0.2-0.1-0.4-0.1-0.7-0.1c-0.5,0-0.8,0.1-1.1,0.4c-0.2,0.3-0.4,0.6-0.3,1.1
		c0,0.3,0.1,0.5,0.2,0.7c0.1,0.2,0.3,0.3,0.5,0.5c0.2,0.1,0.5,0.3,0.7,0.4c0.3,0.1,0.6,0.2,0.8,0.3s0.6,0.3,0.8,0.4
		c0.3,0.2,0.5,0.4,0.7,0.6c0.2,0.3,0.4,0.6,0.5,1c0.1,0.4,0.2,0.8,0.2,1.4c0,0.6-0.1,1.2-0.2,1.7s-0.4,1-0.7,1.4
		c-0.3,0.4-0.7,0.7-1.1,0.9c-0.4,0.2-0.9,0.3-1.5,0.4c-0.3,0-0.6,0-1-0.1c-0.3-0.1-0.6-0.2-0.9-0.3c-0.3-0.1-0.6-0.3-0.8-0.5
		c-0.3-0.2-0.5-0.4-0.7-0.7l0.6-1.3c0-0.1,0.1-0.2,0.2-0.2c0.1-0.1,0.2-0.1,0.3-0.1c0.1,0,0.3,0.1,0.4,0.2c0.1,0.1,0.3,0.2,0.5,0.4
		c0.2,0.1,0.4,0.3,0.6,0.4c0.2,0.1,0.5,0.2,0.9,0.2c0.5,0,0.9-0.2,1.1-0.4c0.3-0.3,0.4-0.7,0.4-1.3c0-0.3-0.1-0.6-0.2-0.8
		c-0.1-0.2-0.3-0.4-0.5-0.5c-0.2-0.1-0.5-0.3-0.7-0.3c-0.3-0.1-0.6-0.2-0.8-0.3c-0.3-0.1-0.6-0.3-0.8-0.4c-0.3-0.2-0.5-0.4-0.7-0.7
		c-0.2-0.3-0.4-0.6-0.5-1c-0.1-0.4-0.2-0.9-0.2-1.5c0-0.5,0.1-1,0.2-1.4c0.1-0.5,0.4-0.9,0.6-1.2c0.3-0.4,0.6-0.6,1.1-0.9
		c0.4-0.2,0.9-0.3,1.4-0.3c0.6,0,1.2,0.1,1.7,0.3c0.5,0.2,1,0.6,1.3,1L985.1,212.7z"/>
</g>
<path class="st0" d="M592.3,369.4c-8.9,1.1-16.4-6.4-15.3-15.3c0.8-6.1,5.7-11,11.7-11.7c8.9-1.1,16.4,6.4,15.3,15.3
	C603.2,363.7,598.3,368.6,592.3,369.4z M594.9,346.3c-8.1-3.4-15.9,3.3-14.6,11.3c0.7,4.3,4.2,7.8,8.5,8.5c8,1.3,14.7-6.5,11.3-14.6
	C599.1,349.2,597.2,347.3,594.9,346.3z"/>
</svg>
